<mxfile host="app.diagrams.net" agent="Mozilla/5.0 (Macintosh; Intel Mac OS X 10_15_7) AppleWebKit/537.36 (KHTML, like Gecko) Chrome/128.0.0.0 Safari/537.36" version="24.7.14">
  <diagram name="Page-1" id="Sf3IW4c9aaSSAB_oCXGL">
    <mxGraphModel grid="1" page="1" gridSize="10" guides="1" tooltips="1" connect="1" arrows="1" fold="1" pageScale="1" pageWidth="850" pageHeight="1100" math="0" shadow="0">
      <root>
        <mxCell id="0" />
        <mxCell id="1" parent="0" />
        <mxCell id="3H27bb1HigrUH2XvoBVm-1" value="api/waypoints" style="shape=parallelogram;perimeter=parallelogramPerimeter;fixedSize=1;strokeWidth=2;whiteSpace=wrap;" vertex="1" parent="1">
          <mxGeometry x="1818" y="20" width="139" height="34" as="geometry" />
        </mxCell>
        <mxCell id="3H27bb1HigrUH2XvoBVm-2" value="GET /api/destinos" style="whiteSpace=wrap;strokeWidth=2;" vertex="1" parent="1">
          <mxGeometry x="20" y="104" width="191" height="49" as="geometry" />
        </mxCell>
        <mxCell id="3H27bb1HigrUH2XvoBVm-3" value="POST /api/destinos" style="whiteSpace=wrap;strokeWidth=2;" vertex="1" parent="1">
          <mxGeometry x="261" y="104" width="199" height="49" as="geometry" />
        </mxCell>
        <mxCell id="3H27bb1HigrUH2XvoBVm-4" value="PUT /api/destinos/:id" style="whiteSpace=wrap;strokeWidth=2;" vertex="1" parent="1">
          <mxGeometry x="509" y="104" width="218" height="49" as="geometry" />
        </mxCell>
        <mxCell id="3H27bb1HigrUH2XvoBVm-5" value="DELETE /api/destinos/:id" style="whiteSpace=wrap;strokeWidth=2;" vertex="1" parent="1">
          <mxGeometry x="778" y="104" width="243" height="49" as="geometry" />
        </mxCell>
        <mxCell id="3H27bb1HigrUH2XvoBVm-6" value="POST /api/rota" style="whiteSpace=wrap;strokeWidth=2;" vertex="1" parent="1">
          <mxGeometry x="1071" y="104" width="169" height="49" as="geometry" />
        </mxCell>
        <mxCell id="3H27bb1HigrUH2XvoBVm-7" value="api/auth" style="shape=parallelogram;perimeter=parallelogramPerimeter;fixedSize=1;strokeWidth=2;whiteSpace=wrap;" vertex="1" parent="1">
          <mxGeometry x="4182" y="20" width="100" height="34" as="geometry" />
        </mxCell>
        <mxCell id="3H27bb1HigrUH2XvoBVm-8" value="POST /api/auth/login" style="whiteSpace=wrap;strokeWidth=2;" vertex="1" parent="1">
          <mxGeometry x="3989" y="104" width="215" height="49" as="geometry" />
        </mxCell>
        <mxCell id="3H27bb1HigrUH2XvoBVm-9" value="POST /api/auth/logout" style="whiteSpace=wrap;strokeWidth=2;" vertex="1" parent="1">
          <mxGeometry x="4254" y="104" width="226" height="49" as="geometry" />
        </mxCell>
        <mxCell id="3H27bb1HigrUH2XvoBVm-10" value="GET /api/usuarios" style="whiteSpace=wrap;strokeWidth=2;" vertex="1" parent="1">
          <mxGeometry x="1290" y="104" width="190" height="49" as="geometry" />
        </mxCell>
        <mxCell id="3H27bb1HigrUH2XvoBVm-11" value="POST /api/usuarios" style="whiteSpace=wrap;strokeWidth=2;" vertex="1" parent="1">
          <mxGeometry x="1530" y="104" width="198" height="49" as="geometry" />
        </mxCell>
        <mxCell id="3H27bb1HigrUH2XvoBVm-12" value="PUT /api/usuarios/:id" style="whiteSpace=wrap;strokeWidth=2;" vertex="1" parent="1">
          <mxGeometry x="1778" y="104" width="218" height="49" as="geometry" />
        </mxCell>
        <mxCell id="3H27bb1HigrUH2XvoBVm-13" value="DELETE /api/usuarios/:id" style="whiteSpace=wrap;strokeWidth=2;" vertex="1" parent="1">
          <mxGeometry x="2046" y="104" width="242" height="49" as="geometry" />
        </mxCell>
        <mxCell id="3H27bb1HigrUH2XvoBVm-14" value="GET /api/sessoes/:id" style="whiteSpace=wrap;strokeWidth=2;" vertex="1" parent="1">
          <mxGeometry x="2338" y="104" width="212" height="49" as="geometry" />
        </mxCell>
        <mxCell id="3H27bb1HigrUH2XvoBVm-15" value="DELETE /api/sessoes/:id" style="whiteSpace=wrap;strokeWidth=2;" vertex="1" parent="1">
          <mxGeometry x="2600" y="104" width="236" height="49" as="geometry" />
        </mxCell>
        <mxCell id="3H27bb1HigrUH2XvoBVm-16" value="GET /api/waypoints" style="whiteSpace=wrap;strokeWidth=2;" vertex="1" parent="1">
          <mxGeometry x="2886" y="104" width="204" height="49" as="geometry" />
        </mxCell>
        <mxCell id="3H27bb1HigrUH2XvoBVm-17" value="POST /api/waypoints" style="whiteSpace=wrap;strokeWidth=2;" vertex="1" parent="1">
          <mxGeometry x="3140" y="104" width="212" height="49" as="geometry" />
        </mxCell>
        <mxCell id="3H27bb1HigrUH2XvoBVm-18" value="PUT /api/waypoints/:id" style="whiteSpace=wrap;strokeWidth=2;" vertex="1" parent="1">
          <mxGeometry x="3402" y="104" width="231" height="49" as="geometry" />
        </mxCell>
        <mxCell id="3H27bb1HigrUH2XvoBVm-19" value="DELETE /api/waypoints/:id" style="whiteSpace=wrap;strokeWidth=2;" vertex="1" parent="1">
          <mxGeometry x="3683" y="104" width="256" height="49" as="geometry" />
        </mxCell>
        <mxCell id="3H27bb1HigrUH2XvoBVm-20" value="" style="curved=1;startArrow=none;endArrow=block;exitX=0;exitY=0.54;entryX=0.5;entryY=-0.01;rounded=0;" edge="1" parent="1" source="3H27bb1HigrUH2XvoBVm-1" target="3H27bb1HigrUH2XvoBVm-2">
          <mxGeometry relative="1" as="geometry">
            <Array as="points">
              <mxPoint x="115" y="79" />
            </Array>
          </mxGeometry>
        </mxCell>
        <mxCell id="3H27bb1HigrUH2XvoBVm-21" value="" style="curved=1;startArrow=none;endArrow=block;exitX=0;exitY=0.55;entryX=0.5;entryY=-0.01;rounded=0;" edge="1" parent="1" source="3H27bb1HigrUH2XvoBVm-1" target="3H27bb1HigrUH2XvoBVm-3">
          <mxGeometry relative="1" as="geometry">
            <Array as="points">
              <mxPoint x="360" y="79" />
            </Array>
          </mxGeometry>
        </mxCell>
        <mxCell id="3H27bb1HigrUH2XvoBVm-22" value="" style="curved=1;startArrow=none;endArrow=block;exitX=0;exitY=0.56;entryX=0.5;entryY=-0.01;rounded=0;" edge="1" parent="1" source="3H27bb1HigrUH2XvoBVm-1" target="3H27bb1HigrUH2XvoBVm-4">
          <mxGeometry relative="1" as="geometry">
            <Array as="points">
              <mxPoint x="619" y="79" />
            </Array>
          </mxGeometry>
        </mxCell>
        <mxCell id="3H27bb1HigrUH2XvoBVm-23" value="" style="curved=1;startArrow=none;endArrow=block;exitX=0;exitY=0.58;entryX=0.5;entryY=-0.01;rounded=0;" edge="1" parent="1" source="3H27bb1HigrUH2XvoBVm-1" target="3H27bb1HigrUH2XvoBVm-5">
          <mxGeometry relative="1" as="geometry">
            <Array as="points">
              <mxPoint x="899" y="79" />
            </Array>
          </mxGeometry>
        </mxCell>
        <mxCell id="3H27bb1HigrUH2XvoBVm-24" value="" style="curved=1;startArrow=none;endArrow=block;exitX=0;exitY=0.61;entryX=0.5;entryY=-0.01;rounded=0;" edge="1" parent="1" source="3H27bb1HigrUH2XvoBVm-1" target="3H27bb1HigrUH2XvoBVm-6">
          <mxGeometry relative="1" as="geometry">
            <Array as="points">
              <mxPoint x="1155" y="79" />
            </Array>
          </mxGeometry>
        </mxCell>
        <mxCell id="3H27bb1HigrUH2XvoBVm-25" value="" style="curved=1;startArrow=none;endArrow=block;exitX=0;exitY=0.95;entryX=0.5;entryY=-0.01;rounded=0;" edge="1" parent="1" source="3H27bb1HigrUH2XvoBVm-7" target="3H27bb1HigrUH2XvoBVm-8">
          <mxGeometry relative="1" as="geometry">
            <Array as="points">
              <mxPoint x="4096" y="79" />
            </Array>
          </mxGeometry>
        </mxCell>
        <mxCell id="3H27bb1HigrUH2XvoBVm-26" value="" style="curved=1;startArrow=none;endArrow=block;exitX=1;exitY=0.95;entryX=0.5;entryY=-0.01;rounded=0;" edge="1" parent="1" source="3H27bb1HigrUH2XvoBVm-7" target="3H27bb1HigrUH2XvoBVm-9">
          <mxGeometry relative="1" as="geometry">
            <Array as="points">
              <mxPoint x="4367" y="79" />
            </Array>
          </mxGeometry>
        </mxCell>
        <mxCell id="3H27bb1HigrUH2XvoBVm-27" value="" style="curved=1;startArrow=none;endArrow=block;exitX=0;exitY=0.66;entryX=0.5;entryY=-0.01;rounded=0;" edge="1" parent="1" source="3H27bb1HigrUH2XvoBVm-1" target="3H27bb1HigrUH2XvoBVm-10">
          <mxGeometry relative="1" as="geometry">
            <Array as="points">
              <mxPoint x="1385" y="79" />
            </Array>
          </mxGeometry>
        </mxCell>
        <mxCell id="3H27bb1HigrUH2XvoBVm-28" value="" style="curved=1;startArrow=none;endArrow=block;exitX=0;exitY=0.82;entryX=0.5;entryY=-0.01;rounded=0;" edge="1" parent="1" source="3H27bb1HigrUH2XvoBVm-1" target="3H27bb1HigrUH2XvoBVm-11">
          <mxGeometry relative="1" as="geometry">
            <Array as="points">
              <mxPoint x="1629" y="79" />
            </Array>
          </mxGeometry>
        </mxCell>
        <mxCell id="3H27bb1HigrUH2XvoBVm-29" value="" style="curved=1;startArrow=none;endArrow=block;exitX=0.5;exitY=0.99;entryX=0.5;entryY=-0.01;rounded=0;" edge="1" parent="1" source="3H27bb1HigrUH2XvoBVm-1" target="3H27bb1HigrUH2XvoBVm-12">
          <mxGeometry relative="1" as="geometry">
            <Array as="points" />
          </mxGeometry>
        </mxCell>
        <mxCell id="3H27bb1HigrUH2XvoBVm-30" value="" style="curved=1;startArrow=none;endArrow=block;exitX=1;exitY=0.8;entryX=0.5;entryY=-0.01;rounded=0;" edge="1" parent="1" source="3H27bb1HigrUH2XvoBVm-1" target="3H27bb1HigrUH2XvoBVm-13">
          <mxGeometry relative="1" as="geometry">
            <Array as="points">
              <mxPoint x="2167" y="79" />
            </Array>
          </mxGeometry>
        </mxCell>
        <mxCell id="3H27bb1HigrUH2XvoBVm-31" value="" style="curved=1;startArrow=none;endArrow=block;exitX=1;exitY=0.65;entryX=0.5;entryY=-0.01;rounded=0;" edge="1" parent="1" source="3H27bb1HigrUH2XvoBVm-1" target="3H27bb1HigrUH2XvoBVm-14">
          <mxGeometry relative="1" as="geometry">
            <Array as="points">
              <mxPoint x="2444" y="79" />
            </Array>
          </mxGeometry>
        </mxCell>
        <mxCell id="3H27bb1HigrUH2XvoBVm-32" value="" style="curved=1;startArrow=none;endArrow=block;exitX=1;exitY=0.6;entryX=0.5;entryY=-0.01;rounded=0;" edge="1" parent="1" source="3H27bb1HigrUH2XvoBVm-1" target="3H27bb1HigrUH2XvoBVm-15">
          <mxGeometry relative="1" as="geometry">
            <Array as="points">
              <mxPoint x="2718" y="79" />
            </Array>
          </mxGeometry>
        </mxCell>
        <mxCell id="3H27bb1HigrUH2XvoBVm-33" value="" style="curved=1;startArrow=none;endArrow=block;exitX=1;exitY=0.57;entryX=0.5;entryY=-0.01;rounded=0;" edge="1" parent="1" source="3H27bb1HigrUH2XvoBVm-1" target="3H27bb1HigrUH2XvoBVm-16">
          <mxGeometry relative="1" as="geometry">
            <Array as="points">
              <mxPoint x="2988" y="79" />
            </Array>
          </mxGeometry>
        </mxCell>
        <mxCell id="3H27bb1HigrUH2XvoBVm-34" value="" style="curved=1;startArrow=none;endArrow=block;exitX=1;exitY=0.56;entryX=0.5;entryY=-0.01;rounded=0;" edge="1" parent="1" source="3H27bb1HigrUH2XvoBVm-1" target="3H27bb1HigrUH2XvoBVm-17">
          <mxGeometry relative="1" as="geometry">
            <Array as="points">
              <mxPoint x="3246" y="79" />
            </Array>
          </mxGeometry>
        </mxCell>
        <mxCell id="3H27bb1HigrUH2XvoBVm-35" value="" style="curved=1;startArrow=none;endArrow=block;exitX=1;exitY=0.55;entryX=0.5;entryY=-0.01;rounded=0;" edge="1" parent="1" source="3H27bb1HigrUH2XvoBVm-1" target="3H27bb1HigrUH2XvoBVm-18">
          <mxGeometry relative="1" as="geometry">
            <Array as="points">
              <mxPoint x="3517" y="79" />
            </Array>
          </mxGeometry>
        </mxCell>
        <mxCell id="3H27bb1HigrUH2XvoBVm-36" value="" style="curved=1;startArrow=none;endArrow=block;exitX=1;exitY=0.54;entryX=0.5;entryY=-0.01;rounded=0;" edge="1" parent="1" source="3H27bb1HigrUH2XvoBVm-1" target="3H27bb1HigrUH2XvoBVm-19">
          <mxGeometry relative="1" as="geometry">
            <Array as="points">
              <mxPoint x="3811" y="79" />
            </Array>
          </mxGeometry>
        </mxCell>
      </root>
    </mxGraphModel>
  </diagram>
</mxfile>
